<svg width="27" height="27" viewBox="0 0 27 27" fill="none" xmlns="http://www.w3.org/2000/svg">
<path d="M24.4677 5.88614C24.4674 5.87054 24.4666 5.85496 24.4654 5.83941C24.4644 5.82671 24.4631 5.8141 24.4616 5.80158C24.4598 5.78701 24.4575 5.77251 24.455 5.75804C24.4526 5.74493 24.4501 5.73193 24.4472 5.71905C24.4441 5.70536 24.4405 5.69179 24.4367 5.67822C24.4331 5.66519 24.4293 5.65223 24.425 5.63946C24.4206 5.62623 24.4157 5.61317 24.4106 5.60015C24.4057 5.5876 24.4007 5.57517 24.3953 5.56294C24.3896 5.55014 24.3834 5.53755 24.377 5.52498C24.3709 5.51293 24.3646 5.50101 24.3579 5.48932C24.3511 5.47737 24.3439 5.46563 24.3365 5.45394C24.3289 5.44199 24.3211 5.43025 24.3129 5.41871C24.3053 5.408 24.2974 5.3975 24.2892 5.38704C24.2799 5.37517 24.2703 5.36364 24.2604 5.35228C24.2558 5.34698 24.2518 5.34134 24.247 5.33611C24.2429 5.33168 24.2385 5.32792 24.2343 5.32362C24.2241 5.31296 24.2136 5.30269 24.2029 5.29257C24.1929 5.2832 24.1829 5.27393 24.1726 5.26512C24.1625 5.25644 24.152 5.24825 24.1415 5.24007C24.1299 5.2311 24.1185 5.22222 24.1066 5.21396C24.0963 5.20677 24.0856 5.2001 24.075 5.19338C24.0624 5.18545 24.0499 5.17755 24.0371 5.17034C24.0258 5.16403 24.0142 5.15834 24.0026 5.15252C23.99 5.14621 23.9775 5.13985 23.9646 5.13419C23.9518 5.12855 23.9387 5.12363 23.9255 5.11861C23.9134 5.114 23.9013 5.10929 23.889 5.10524C23.875 5.10061 23.8607 5.09672 23.8463 5.09283C23.8342 5.08956 23.8222 5.08624 23.8101 5.08351C23.7958 5.08032 23.7812 5.0778 23.7667 5.07532C23.7537 5.07313 23.7409 5.071 23.7279 5.0694C23.7141 5.0677 23.7002 5.06659 23.6862 5.06559C23.672 5.06456 23.6578 5.06374 23.6435 5.06343C23.6373 5.0633 23.6312 5.0625 23.625 5.0625H3.375C3.36924 5.0625 3.36367 5.06325 3.35791 5.06338C3.34256 5.06368 3.32732 5.06454 3.31202 5.0657C3.29899 5.06664 3.28607 5.06768 3.27324 5.06922C3.25924 5.07092 3.24533 5.07321 3.23143 5.07561C3.21783 5.07795 3.20424 5.0803 3.19085 5.08326C3.17777 5.08619 3.16489 5.08975 3.15191 5.0933C3.13842 5.09698 3.12493 5.10064 3.11169 5.10499C3.09861 5.10926 3.08584 5.11423 3.07297 5.11915C3.06055 5.12394 3.04809 5.1286 3.03594 5.13393C3.02254 5.1398 3.00942 5.14645 2.99623 5.15306C2.98516 5.15863 2.97408 5.16408 2.96333 5.17014C2.95009 5.17753 2.93722 5.18564 2.92434 5.1938C2.91404 5.20031 2.90369 5.20677 2.8937 5.21375C2.8816 5.22217 2.86986 5.23121 2.85817 5.24035C2.84776 5.24841 2.83746 5.25647 2.82753 5.26499C2.81712 5.27388 2.80708 5.28323 2.79704 5.2927C2.78633 5.30277 2.77587 5.31299 2.76568 5.3236C2.76156 5.32793 2.75708 5.33169 2.75301 5.33612C2.74822 5.34134 2.74425 5.34698 2.73961 5.35229C2.72973 5.36364 2.72015 5.37518 2.71083 5.38705C2.70264 5.3975 2.69476 5.40801 2.68714 5.41872C2.67895 5.43026 2.67112 5.442 2.66355 5.45395C2.65608 5.46564 2.64887 5.47738 2.64208 5.48933C2.63538 5.50102 2.62915 5.51294 2.62302 5.52499C2.61664 5.53755 2.61046 5.55015 2.60474 5.56294C2.59928 5.57518 2.59428 5.58761 2.58939 5.60015C2.58429 5.61318 2.5794 5.62623 2.57502 5.63947C2.57075 5.65224 2.56694 5.66519 2.56328 5.67822C2.55952 5.69179 2.55592 5.70536 2.55278 5.71906C2.54989 5.73194 2.54737 5.74494 2.54505 5.75805C2.54248 5.77252 2.54021 5.78701 2.53841 5.80159C2.53686 5.81413 2.53561 5.82673 2.53465 5.83941C2.53341 5.85499 2.53262 5.87057 2.53228 5.88615C2.53213 5.8929 2.53125 5.89946 2.53125 5.90626V20.25C2.53176 20.6974 2.70972 21.1263 3.02607 21.4427C3.34243 21.759 3.77135 21.937 4.21875 21.9375H22.7812C23.2286 21.937 23.6576 21.759 23.9739 21.4427C24.2903 21.1263 24.4682 20.6974 24.4688 20.25V5.90625C24.4688 5.89945 24.4679 5.89289 24.4677 5.88614ZM22.7813 20.25H4.21876V7.82436L12.9298 15.8095C13.0855 15.9521 13.2889 16.0313 13.5 16.0313C13.7111 16.0313 13.9146 15.9521 14.0702 15.8095L22.7814 7.82421L22.7823 20.25L22.7813 20.25Z" fill="#4B81C1"/>
</svg>
