<svg width="24" height="24" viewBox="0 0 24 24" fill="none" xmlns="http://www.w3.org/2000/svg">
<path d="M18.3543 9.29267C18.3543 14.3237 12.0014 22.5889 12.0014 22.5889C12.0014 22.5889 5.64844 14.3237 5.64844 9.29267C5.64844 7.57713 6.31776 5.93185 7.50917 4.71878C8.70058 3.50571 10.3165 2.82422 12.0014 2.82422C13.6863 2.82422 15.3022 3.50571 16.4936 4.71878C17.685 5.93185 18.3543 7.57713 18.3543 9.29267Z" fill="#4B81C1" stroke="#4B81C1" stroke-width="1.5" stroke-linecap="round" stroke-linejoin="round"/>
<path d="M12 11C13.6569 11 15 9.65685 15 8C15 6.34315 13.6569 5 12 5C10.3431 5 9 6.34315 9 8C9 9.65685 10.3431 11 12 11Z" fill="white"/>
</svg>
