<svg width="25" height="25" viewBox="0 0 25 25" fill="none" xmlns="http://www.w3.org/2000/svg">
<path d="M2.63155 11.8406H0C0 5.09073 5.09599 0 11.8551 0V2.63155C6.51045 2.63155 2.63155 6.50387 2.63155 11.8406Z" fill="#4B81C1"/>
<path d="M11.8419 7.89495C9.07483 7.89495 7.89458 9.0752 7.89458 11.8423H5.26303C5.26303 7.5989 7.59853 5.26341 11.8419 5.26341V7.89495ZM7.33932 15.0567C7.59215 14.8269 7.92439 14.7044 8.26588 14.7149C8.60738 14.7255 8.93141 14.8683 9.16956 15.1133L12.3182 18.3514C13.0761 18.2067 14.5998 17.7317 16.1682 16.1672C17.7366 14.5975 18.2116 13.0699 18.3523 12.3173L15.1169 9.1673C14.8716 8.92932 14.7285 8.60523 14.718 8.26364C14.7074 7.92205 14.8302 7.58975 15.0603 7.33706L19.9221 1.99108C20.1523 1.7376 20.4722 1.58385 20.814 1.56248C21.1557 1.5411 21.4923 1.65379 21.7523 1.87661L24.6075 4.32526C24.835 4.55357 24.9708 4.85743 24.9891 5.1792C25.0088 5.50814 25.3852 13.3001 19.3431 19.3448C14.0721 24.6145 7.46958 25 5.65118 25C5.3854 25 5.22224 24.9921 5.17882 24.9895C4.8571 24.9715 4.5534 24.8351 4.3262 24.6066L1.87886 21.75C1.65588 21.4902 1.54297 21.1537 1.5641 20.812C1.58523 20.4702 1.73873 20.1502 1.99202 19.9198L7.33932 15.0567Z" fill="#4B81C1"/>
</svg>
