<svg width="18" height="19" viewBox="0 0 18 19" fill="none" xmlns="http://www.w3.org/2000/svg">
<path d="M3.375 19C2.75625 19 2.22675 18.7935 1.7865 18.3804C1.3455 17.9666 1.125 17.4694 1.125 16.8889V3.16667C0.80625 3.16667 0.538875 3.06569 0.322875 2.86372C0.107625 2.66106 0 2.41019 0 2.11111C0 1.81204 0.107625 1.56117 0.322875 1.3585C0.538875 1.15654 0.80625 1.05556 1.125 1.05556H5.625C5.625 0.756482 5.733 0.505611 5.949 0.302944C6.16425 0.100981 6.43125 0 6.75 0H11.25C11.5687 0 11.8361 0.100981 12.0521 0.302944C12.2674 0.505611 12.375 0.756482 12.375 1.05556H16.875C17.1937 1.05556 17.4607 1.15654 17.676 1.3585C17.892 1.56117 18 1.81204 18 2.11111C18 2.41019 17.892 2.66106 17.676 2.86372C17.4607 3.06569 17.1937 3.16667 16.875 3.16667V16.8889C16.875 17.4694 16.6549 17.9666 16.2146 18.3804C15.7736 18.7935 15.2438 19 14.625 19H3.375ZM5.625 13.7222C5.625 14.0213 5.733 14.2718 5.949 14.4738C6.16425 14.6764 6.43125 14.7778 6.75 14.7778C7.06875 14.7778 7.33613 14.6764 7.55213 14.4738C7.76738 14.2718 7.875 14.0213 7.875 13.7222V6.33333C7.875 6.03426 7.76738 5.78339 7.55213 5.58072C7.33613 5.37876 7.06875 5.27778 6.75 5.27778C6.43125 5.27778 6.16425 5.37876 5.949 5.58072C5.733 5.78339 5.625 6.03426 5.625 6.33333V13.7222ZM10.125 13.7222C10.125 14.0213 10.233 14.2718 10.449 14.4738C10.6643 14.6764 10.9313 14.7778 11.25 14.7778C11.5687 14.7778 11.8361 14.6764 12.0521 14.4738C12.2674 14.2718 12.375 14.0213 12.375 13.7222V6.33333C12.375 6.03426 12.2674 5.78339 12.0521 5.58072C11.8361 5.37876 11.5687 5.27778 11.25 5.27778C10.9313 5.27778 10.6643 5.37876 10.449 5.58072C10.233 5.78339 10.125 6.03426 10.125 6.33333V13.7222Z" fill="white"/>
</svg>
