<svg width="112" height="29" viewBox="0 0 112 29" fill="none" xmlns="http://www.w3.org/2000/svg">
<path d="M98.538 24.5091C99.5005 23.089 100.464 21.6485 101.387 20.206C99.6342 20.8912 97.8427 21.5336 96.0767 22.0753C91.189 23.5786 86.143 24.6246 81.0725 25.3631C71.3993 26.7827 61.5441 27.0293 51.8166 25.976C42.1093 24.9237 32.5043 22.6723 23.3877 19.1805C14.6479 15.8306 5.38876 11.5761 0.46761 3.15656C-0.405138 1.66213 1.63607 -0.294309 3.01255 0.838262C17.2103 12.3904 35.1692 18.4209 53.231 20.1086C62.4428 20.972 71.7326 20.7166 80.8627 19.2486C85.2034 18.554 89.4781 17.5703 93.7018 16.4002C96.5106 15.6265 99.3267 14.7104 102.156 13.9378C98.648 12.981 95.1202 12.0232 91.9368 10.2666C89.7742 9.09344 91.0029 5.2578 93.4516 5.58833C99.1508 6.37246 104.286 9.47505 109.833 10.8637C111.149 11.1971 111.93 12.9113 111.462 14.1528C109.495 19.3588 106.073 23.7957 102.231 27.7414C100.287 29.7845 96.9425 26.8356 98.538 24.5091Z" fill="#4795F1"/>
</svg>
