<svg width="30" height="30" viewBox="0 0 30 30" fill="none" xmlns="http://www.w3.org/2000/svg">
<path d="M25.5673 14.4172L23.25 15.5759L20.25 9.83067L22.5909 8.66024C22.7667 8.5723 22.9701 8.55695 23.1572 8.61749C23.3443 8.67802 23.5001 8.80961 23.5911 8.9839L25.8967 13.3992C25.9428 13.4875 25.9708 13.5841 25.9792 13.6834C25.9876 13.7826 25.9761 13.8825 25.9454 13.9773C25.9148 14.0721 25.8655 14.1598 25.8006 14.2353C25.7357 14.3108 25.6564 14.3727 25.5673 14.4172V14.4172Z" stroke="#54380D" stroke-width="2" stroke-linecap="round" stroke-linejoin="round"/>
<path d="M6.74994 15.4753L4.43266 14.3166C4.34357 14.2721 4.26425 14.2103 4.19932 14.1347C4.13439 14.0592 4.08516 13.9715 4.0545 13.8767C4.02383 13.782 4.01235 13.682 4.02072 13.5828C4.02909 13.4835 4.05714 13.387 4.10325 13.2987L6.40883 8.88332C6.49985 8.70902 6.65567 8.57744 6.84275 8.5169C7.02982 8.45636 7.23319 8.47171 7.40906 8.55965L9.74994 9.73008L6.74994 15.4753Z" stroke="#54380D" stroke-width="2" stroke-linecap="round" stroke-linejoin="round"/>
<path d="M23.25 15.5761L21.75 17.3309L18.3003 20.7806C18.2087 20.8722 18.095 20.9385 17.9701 20.9731C17.8453 21.0076 17.7137 21.0093 17.588 20.9779L12.1546 19.6195C12.0527 19.594 11.9572 19.5474 11.8745 19.4827L6.75 15.4756" stroke="#54380D" stroke-width="2" stroke-linecap="round" stroke-linejoin="round"/>
<path d="M21.7498 17.3311L17.6248 14.3311L16.4248 15.2311C15.9055 15.6205 15.2739 15.8311 14.6248 15.8311C13.9757 15.8311 13.3441 15.6205 12.8248 15.2311L12.3166 14.8499C12.2306 14.7854 12.1595 14.7032 12.1081 14.6089C12.0567 14.5146 12.0261 14.4103 12.0185 14.3031C12.0109 14.1959 12.0264 14.0883 12.0639 13.9877C12.1015 13.887 12.1603 13.7956 12.2363 13.7196L15.9051 10.0507C15.9748 9.98108 16.0574 9.92584 16.1484 9.88814C16.2394 9.85045 16.337 9.83105 16.4355 9.83105H20.2498" stroke="#54380D" stroke-width="2" stroke-linecap="round" stroke-linejoin="round"/>
<path d="M9.80371 9.73047L14.615 8.32783C14.7868 8.27772 14.971 8.29075 15.1341 8.36455L18.3749 9.83095" stroke="#54380D" stroke-width="2" stroke-linecap="round" stroke-linejoin="round"/>
<path d="M13.5 22.9558L10.6744 22.2494C10.5598 22.2207 10.4535 22.1654 10.3643 22.0878L8.25 20.25" stroke="#54380D" stroke-width="2" stroke-linecap="round" stroke-linejoin="round"/>
</svg>
