<svg width="30" height="30" viewBox="0 0 30 30" fill="none" xmlns="http://www.w3.org/2000/svg">
<path d="M12 17.25H18" stroke="#54380D" stroke-width="2" stroke-linecap="round" stroke-linejoin="round"/>
<path d="M12 14.25H18" stroke="#54380D" stroke-width="2" stroke-linecap="round" stroke-linejoin="round"/>
<path d="M18.0002 6.75H21.75C21.9489 6.75 22.1397 6.82902 22.2803 6.96967C22.421 7.11032 22.5 7.30109 22.5 7.5V23.25C22.5 23.4489 22.421 23.6397 22.2803 23.7803C22.1397 23.921 21.9489 24 21.75 24H8.25C8.05109 24 7.86032 23.921 7.71967 23.7803C7.57902 23.6397 7.5 23.4489 7.5 23.25V7.5C7.5 7.30109 7.57902 7.11032 7.71967 6.96967C7.86032 6.82902 8.05109 6.75 8.25 6.75H11.9998" stroke="#54380D" stroke-width="2" stroke-linecap="round" stroke-linejoin="round"/>
<path d="M11.25 9.75V9C11.25 8.00544 11.6451 7.05161 12.3483 6.34835C13.0516 5.64509 14.0054 5.25 15 5.25C15.9946 5.25 16.9484 5.64509 17.6517 6.34835C18.3549 7.05161 18.75 8.00544 18.75 9V9.75H11.25Z" stroke="#54380D" stroke-width="2" stroke-linecap="round" stroke-linejoin="round"/>
</svg>
