<svg width="24" height="25" viewBox="0 0 24 25" fill="none" xmlns="http://www.w3.org/2000/svg">
<path d="M14.9453 4.25C16.2167 4.59194 17.376 5.26196 18.307 6.19294C19.238 7.12392 19.908 8.28319 20.2499 9.55462" stroke="#0A1135" stroke-opacity="0.8" stroke-width="1.5" stroke-linecap="round" stroke-linejoin="round"/>
<path d="M14.1687 7.1485C14.9316 7.35366 15.6271 7.75567 16.1857 8.31426C16.7443 8.87285 17.1463 9.56841 17.3515 10.3313" stroke="#0A1135" stroke-opacity="0.8" stroke-width="1.5" stroke-linecap="round" stroke-linejoin="round"/>
<path d="M8.66965 12.2014C9.44762 13.7919 10.7369 15.0753 12.3309 15.846C12.4475 15.9013 12.5765 15.9253 12.7052 15.9155C12.8339 15.9058 12.9579 15.8627 13.0648 15.7905L15.4119 14.2254C15.5157 14.1562 15.6352 14.114 15.7594 14.1026C15.8837 14.0911 16.0088 14.1109 16.1235 14.1601L20.5144 16.0419C20.6636 16.1053 20.7881 16.2154 20.8693 16.3557C20.9504 16.496 20.9838 16.6588 20.9643 16.8197C20.8255 17.9057 20.2956 18.9039 19.4739 19.6274C18.6521 20.3508 17.5948 20.7499 16.5 20.75C13.1185 20.75 9.87548 19.4067 7.48439 17.0156C5.0933 14.6245 3.75 11.3815 3.75 8C3.75006 6.90516 4.14918 5.84789 4.87264 5.02613C5.5961 4.20438 6.59428 3.67451 7.68028 3.53572C7.84117 3.51625 8.00403 3.54959 8.14432 3.63073C8.28461 3.71186 8.39473 3.83639 8.4581 3.98555L10.3416 8.38035C10.3903 8.49403 10.4101 8.61799 10.3994 8.74119C10.3886 8.8644 10.3475 8.98302 10.2798 9.0865L8.72011 11.4696C8.64912 11.5768 8.60716 11.7006 8.59831 11.8289C8.58947 11.9571 8.61405 12.0855 8.66965 12.2014V12.2014Z" stroke="#0A1135" stroke-opacity="0.8" stroke-width="1.5" stroke-linecap="round" stroke-linejoin="round"/>
</svg>
