<svg width="34" height="34" viewBox="0 0 34 34" fill="none" xmlns="http://www.w3.org/2000/svg">
<path d="M18.5057 17.3267L24.5974 11.3939C24.8641 11.1335 25.014 10.7803 25.014 10.412C25.014 10.0438 24.8641 9.69056 24.5974 9.43015C24.3306 9.16974 23.9688 9.02344 23.5915 9.02344C23.2143 9.02344 22.8525 9.16974 22.5857 9.43015L16.5082 15.3768L10.4307 9.43015C10.164 9.16974 9.80214 9.02344 9.42488 9.02344C9.04762 9.02344 8.68581 9.16974 8.41905 9.43015C8.15228 9.69056 8.00242 10.0438 8.00242 10.412C8.00242 10.7803 8.15228 11.1335 8.41905 11.3939L14.5107 17.3267L8.41905 23.2595C8.28627 23.3881 8.18087 23.541 8.10895 23.7096C8.03703 23.8781 8 24.0588 8 24.2414C8 24.424 8.03703 24.6047 8.10895 24.7732C8.18087 24.9418 8.28627 25.0947 8.41905 25.2233C8.55075 25.3529 8.70743 25.4558 8.88006 25.526C9.0527 25.5962 9.23786 25.6324 9.42488 25.6324C9.6119 25.6324 9.79706 25.5962 9.9697 25.526C10.1423 25.4558 10.299 25.3529 10.4307 25.2233L16.5082 19.2767L22.5857 25.2233C22.7174 25.3529 22.8741 25.4558 23.0467 25.526C23.2194 25.5962 23.4045 25.6324 23.5915 25.6324C23.7786 25.6324 23.9637 25.5962 24.1364 25.526C24.309 25.4558 24.4657 25.3529 24.5974 25.2233C24.7302 25.0947 24.8356 24.9418 24.9075 24.7732C24.9794 24.6047 25.0164 24.424 25.0164 24.2414C25.0164 24.0588 24.9794 23.8781 24.9075 23.7096C24.8356 23.541 24.7302 23.3881 24.5974 23.2595L18.5057 17.3267Z" fill="#303030"/>
</svg>
