<svg width="26" height="26" viewBox="0 0 26 26" fill="none" xmlns="http://www.w3.org/2000/svg">
<path fill-rule="evenodd" clip-rule="evenodd" d="M13 0C5.8203 0 0 5.8203 0 13C0 20.1797 5.8203 26 13 26C20.1797 26 26 20.1797 26 13C26 5.8203 20.1797 0 13 0ZM10.1418 6.10856C10.8813 6.0749 11.1177 6.06667 13.0007 6.06667H12.9985C14.8821 6.06667 15.1175 6.0749 15.8571 6.10856C16.5952 6.14236 17.0993 6.25921 17.5413 6.43067C17.9978 6.60762 18.3834 6.84451 18.7691 7.23018C19.1548 7.61556 19.3917 8.00239 19.5693 8.4584C19.7398 8.89925 19.8568 9.40308 19.8914 10.1412C19.9247 10.8808 19.9333 11.1171 19.9333 13.0001C19.9333 14.8831 19.9247 15.1188 19.8914 15.8584C19.8568 16.5962 19.7398 17.1002 19.5693 17.5412C19.3917 17.997 19.1548 18.3839 18.7691 18.7692C18.3839 19.1549 17.9976 19.3924 17.5417 19.5695C17.1006 19.7409 16.5962 19.8578 15.8581 19.8916C15.1185 19.9252 14.8829 19.9335 12.9998 19.9335C11.1169 19.9335 10.8808 19.9252 10.1412 19.8916C9.40322 19.8578 8.89925 19.7409 8.45811 19.5695C8.00239 19.3924 7.61556 19.1549 7.23032 18.7692C6.8448 18.3839 6.60791 17.997 6.43067 17.541C6.25936 17.1002 6.1425 16.5963 6.10856 15.8582C6.07504 15.1187 6.06667 14.8831 6.06667 13.0001C6.06667 11.1171 6.07533 10.8806 6.10841 10.1411C6.14163 9.40322 6.25864 8.89925 6.43053 8.45826C6.60819 8.00239 6.84509 7.61556 7.23076 7.23018C7.61614 6.84465 8.00296 6.60776 8.45898 6.43067C8.89983 6.25921 9.40366 6.14236 10.1418 6.10856Z" fill="white"/>
<path fill-rule="evenodd" clip-rule="evenodd" d="M12.3787 7.31619C12.4994 7.316 12.6294 7.31606 12.7696 7.31612L13.0007 7.31619C14.8519 7.31619 15.0713 7.32283 15.8023 7.35605C16.4783 7.38697 16.8452 7.49992 17.0896 7.59482C17.4132 7.72049 17.6439 7.87071 17.8864 8.11338C18.1291 8.35605 18.2793 8.58717 18.4052 8.91073C18.5001 9.15484 18.6133 9.52173 18.644 10.1977C18.6772 10.9286 18.6845 11.1482 18.6845 12.9985C18.6845 14.8489 18.6772 15.0685 18.644 15.7994C18.6131 16.4754 18.5001 16.8423 18.4052 17.0864C18.2796 17.4099 18.1291 17.6403 17.8864 17.8828C17.6437 18.1255 17.4133 18.2757 17.0896 18.4014C16.8455 18.4967 16.4783 18.6094 15.8023 18.6403C15.0714 18.6735 14.8519 18.6808 13.0007 18.6808C11.1493 18.6808 10.9299 18.6735 10.199 18.6403C9.52298 18.6091 9.15609 18.4962 8.91154 18.4013C8.58798 18.2756 8.35687 18.1254 8.1142 17.8827C7.87153 17.64 7.7213 17.4095 7.59535 17.0858C7.50045 16.8417 7.38735 16.4748 7.35658 15.7988C7.32336 15.0679 7.31671 14.8483 7.31671 12.9968C7.31671 11.1453 7.32336 10.9269 7.35658 10.196C7.38749 9.52 7.50045 9.15311 7.59535 8.9087C7.72102 8.58514 7.87153 8.35403 8.1142 8.11136C8.35687 7.86869 8.58798 7.71847 8.91154 7.59251C9.15594 7.49718 9.52298 7.38451 10.199 7.35345C10.8386 7.32456 11.0865 7.3159 12.3787 7.31445V7.31619ZM16.7017 8.46742C16.2423 8.46742 15.8696 8.83966 15.8696 9.29914C15.8696 9.75848 16.2423 10.1311 16.7017 10.1311C17.161 10.1311 17.5337 9.75848 17.5337 9.29914C17.5337 8.8398 17.161 8.46713 16.7017 8.46713V8.46742ZM9.44007 13.0001C9.44007 11.0338 11.0342 9.43962 13.0005 9.43954C14.9669 9.43954 16.5607 11.0338 16.5607 13.0001C16.5607 14.9665 14.967 16.56 13.0007 16.56C11.0343 16.56 9.44007 14.9665 9.44007 13.0001Z" fill="white"/>
<path d="M13.0006 10.689C14.277 10.689 15.3118 11.7236 15.3118 13.0001C15.3118 14.2764 14.277 15.3112 13.0006 15.3112C11.7242 15.3112 10.6895 14.2764 10.6895 13.0001C10.6895 11.7236 11.7242 10.689 13.0006 10.689Z" fill="white"/>
</svg>
