<svg width="30" height="30" viewBox="0 0 30 30" fill="none" xmlns="http://www.w3.org/2000/svg">
<path d="M24.4408 3.74638C24.1398 3.76828 23.8444 3.83888 23.5661 3.95544H23.5623C23.2951 4.06138 22.0248 4.59576 20.0936 5.40576L13.173 8.32044C8.20702 10.4111 3.32545 12.4698 3.32545 12.4698L3.38358 12.4473C3.38358 12.4473 3.04702 12.5579 2.69545 12.7989C2.47826 12.9371 2.29137 13.1179 2.14608 13.3304C1.97358 13.5836 1.83483 13.9708 1.88639 14.3711C1.97077 15.0479 2.40952 15.4539 2.72452 15.6779C3.04327 15.9048 3.34702 16.0108 3.34702 16.0108H3.35452L7.93233 17.5529C8.13764 18.212 9.32733 22.1233 9.61327 23.0242C9.78202 23.5623 9.94608 23.8989 10.1514 24.1558C10.2508 24.287 10.367 24.3967 10.5067 24.4848C10.5793 24.5271 10.6568 24.5604 10.7373 24.5842L10.6905 24.5729C10.7045 24.5767 10.7158 24.5879 10.7261 24.5917C10.7636 24.602 10.7889 24.6058 10.8367 24.6133C11.5614 24.8326 12.1436 24.3826 12.1436 24.3826L12.1764 24.3564L14.8792 21.8954L19.4092 25.3708L19.5123 25.4148C20.4564 25.8292 21.4126 25.5986 21.918 25.1917C22.427 24.782 22.6248 24.2579 22.6248 24.2579L22.6576 24.1736L26.1583 6.24013C26.2576 5.79763 26.283 5.38326 26.1733 4.98107C26.0601 4.57403 25.799 4.22395 25.4411 3.99951C25.1405 3.8168 24.792 3.72861 24.4408 3.74638V3.74638ZM24.3461 5.66826C24.3423 5.72732 24.3536 5.72076 24.3273 5.83419V5.84451L20.8595 23.5914C20.8445 23.6167 20.8192 23.672 20.7498 23.7273C20.6767 23.7854 20.6186 23.822 20.3139 23.7011L14.7733 19.4533L11.4264 22.5039L12.1295 18.0133L21.182 9.57576C21.5551 9.22888 21.4305 9.15576 21.4305 9.15576C21.4567 8.73013 20.867 9.03107 20.867 9.03107L9.45202 16.1026L9.44827 16.0839L3.97702 14.2417V14.2379L3.96295 14.2351C3.97255 14.2319 3.98194 14.2282 3.99108 14.2239L4.02108 14.2089L4.05014 14.1986C4.05014 14.1986 8.93545 12.1398 13.9014 10.0492C16.3876 9.00201 18.8926 7.94732 20.8192 7.13357C21.9618 6.65264 23.1055 6.17451 24.2505 5.69919C24.3273 5.66919 24.2908 5.66919 24.3461 5.66919V5.66826Z" fill="#474747"/>
</svg>
