<svg width="30" height="30" viewBox="0 0 30 30" fill="none" xmlns="http://www.w3.org/2000/svg">
<mask id="mask0_247_380" style="mask-type:alpha" maskUnits="userSpaceOnUse" x="0" y="0" width="30" height="30">
<rect width="30" height="30" fill="#D9D9D9"/>
</mask>
<g mask="url(#mask0_247_380)">
<path fill-rule="evenodd" clip-rule="evenodd" d="M26.4836 16.9821C23.5897 19.5528 15.7139 23.9027 11.6846 25.2993C11.0415 25.5217 9.40207 25.9927 9.04877 25.9992C8.2985 26.0188 7.57602 25.6721 7.22669 25.1161C7.09172 24.9003 6.69475 23.4906 6.56772 22.8627C6.1906 20.9526 5.99609 17.9861 6.00006 15.0033C5.99609 11.8733 6.20648 8.76621 6.62727 6.87578C6.73842 6.36556 7.06393 5.1914 7.1592 5.0017C7.33784 4.64847 7.66335 4.37047 8.05635 4.19713C8.35805 4.06303 8.70341 3.99108 9.04877 4.00089C9.40207 4.00743 10.8391 4.4228 11.3313 4.58306C15.2137 5.8259 23.4269 10.3328 26.4439 12.9821C26.7138 13.2208 27.4562 13.8619 27.5792 13.9927C27.8611 14.287 28 14.6435 28 15.0033C28 15.3369 27.8769 15.6771 27.6229 15.9616C27.4919 16.1088 26.7337 16.7629 26.4836 16.9821Z" fill="white" stroke="white" stroke-width="1.5" stroke-linecap="round" stroke-linejoin="round"/>
</g>
</svg>
